HIERARCHY
ROOT mixamorig:Hips
{
	OFFSET 0.000000 103.991501 0.000000
	CHANNELS 6 Xposition Yposition Zposition Xrotation Yrotation Zrotation
	JOINT mixamorig:Spine
	{
		OFFSET 0.000000 10.181602 0.131500
		CHANNELS 3 Xrotation Yrotation Zrotation
		JOINT mixamorig:Spine1
		{
			OFFSET 0.000000 10.083504 -1.000800
			CHANNELS 3 Xrotation Yrotation Zrotation
			JOINT mixamorig:Spine2
			{
				OFFSET 0.000000 9.100006 -1.373400
				CHANNELS 3 Xrotation Yrotation Zrotation
				JOINT mixamorig:Neck
				{
					OFFSET 0.000000 16.671707 -2.516200
					CHANNELS 3 Xrotation Yrotation Zrotation
					JOINT mixamorig:Head
					{
						OFFSET 0.000000 9.617905 1.685000
						CHANNELS 3 Xrotation Yrotation Zrotation
						JOINT mixamorig:HeadTop_End
						{
							OFFSET 0.000000 17.815201 2.585000
							CHANNELS 3 Xrotation Yrotation Zrotation
							End Site
							{
								OFFSET 0.000000 13.794495 0.000000
							}
						}
						JOINT mixamorig:LeftEye
						{
							OFFSET 3.067600 6.409500 9.283600
							CHANNELS 3 Xrotation Yrotation Zrotation
							End Site
							{
								OFFSET 0.000000 13.794495 0.000000
							}
						}
						JOINT mixamorig:RightEye
						{
							OFFSET -3.067600 6.409500 9.283500
							CHANNELS 3 Xrotation Yrotation Zrotation
							End Site
							{
								OFFSET 0.000000 13.794495 0.000000
							}
						}
					}
				}
				JOINT mixamorig:LeftShoulder
				{
					OFFSET 4.570400 10.945999 -2.628000
					CHANNELS 3 Xrotation Yrotation Zrotation
					JOINT mixamorig:LeftArm
					{
						OFFSET 10.592400 -0.524597 -2.232100
						CHANNELS 3 Xrotation Yrotation Zrotation
						JOINT mixamorig:LeftForeArm
						{
							OFFSET 27.841499 0.000000 0.000000
							CHANNELS 3 Xrotation Yrotation Zrotation
							JOINT mixamorig:LeftHand
							{
								OFFSET 28.328800 0.000000 0.000000
								CHANNELS 3 Xrotation Yrotation Zrotation
								JOINT mixamorig:LeftHandThumb1
								{
									OFFSET 2.466103 -1.576218 2.681689
									CHANNELS 3 Xrotation Yrotation Zrotation
									JOINT mixamorig:LeftHandThumb2
									{
										OFFSET 3.229782 -1.864716 1.864716
										CHANNELS 3 Xrotation Yrotation Zrotation
										JOINT mixamorig:LeftHandThumb3
										{
											OFFSET 2.652611 -1.531494 1.531488
											CHANNELS 3 Xrotation Yrotation Zrotation
											JOINT mixamorig:LeftHandThumb4
											{
												OFFSET 1.954605 -1.128494 1.128493
												CHANNELS 3 Xrotation Yrotation Zrotation
												End Site
												{
													OFFSET -0.000404 2.523392 0.000683
												}
											}
										}
									}
								}
								JOINT mixamorig:LeftHandIndex1
								{
									OFFSET 9.109299 -0.518112 2.259867
									CHANNELS 3 Xrotation Yrotation Zrotation
									JOINT mixamorig:LeftHandIndex2
									{
										OFFSET 3.676399 0.000000 0.000000
										CHANNELS 3 Xrotation Yrotation Zrotation
										JOINT mixamorig:LeftHandIndex3
										{
											OFFSET 2.883102 0.000000 0.000000
											CHANNELS 3 Xrotation Yrotation Zrotation
											JOINT mixamorig:LeftHandIndex4
											{
												OFFSET 2.392700 0.000000 0.000000
												CHANNELS 3 Xrotation Yrotation Zrotation
												End Site
												{
													OFFSET 0.000000 2.392700 0.001080
												}
											}
										}
									}
								}
								JOINT mixamorig:LeftHandMiddle1
								{
									OFFSET 9.533401 0.000000 0.000000
									CHANNELS 3 Xrotation Yrotation Zrotation
									JOINT mixamorig:LeftHandMiddle2
									{
										OFFSET 3.698196 0.000000 0.000000
										CHANNELS 3 Xrotation Yrotation Zrotation
										JOINT mixamorig:LeftHandMiddle3
										{
											OFFSET 2.950897 0.000000 0.000000
											CHANNELS 3 Xrotation Yrotation Zrotation
											JOINT mixamorig:LeftHandMiddle4
											{
												OFFSET 2.833900 0.000000 0.000000
												CHANNELS 3 Xrotation Yrotation Zrotation
												End Site
												{
													OFFSET 0.000000 2.833893 0.001278
												}
											}
										}
									}
								}
								JOINT mixamorig:LeftHandRing1
								{
									OFFSET 9.104500 -0.043060 -1.865119
									CHANNELS 3 Xrotation Yrotation Zrotation
									JOINT mixamorig:LeftHandRing2
									{
										OFFSET 3.153999 0.000000 0.000000
										CHANNELS 3 Xrotation Yrotation Zrotation
										JOINT mixamorig:LeftHandRing3
										{
											OFFSET 2.937698 0.000000 0.000000
											CHANNELS 3 Xrotation Yrotation Zrotation
											JOINT mixamorig:LeftHandRing4
											{
												OFFSET 2.647499 0.000000 0.000000
												CHANNELS 3 Xrotation Yrotation Zrotation
												End Site
												{
													OFFSET 0.000000 2.647507 0.001195
												}
											}
										}
									}
								}
								JOINT mixamorig:LeftHandPinky1
								{
									OFFSET 8.077797 -0.486984 -3.806321
									CHANNELS 3 Xrotation Yrotation Zrotation
									JOINT mixamorig:LeftHandPinky2
									{
										OFFSET 3.599998 0.000000 0.000000
										CHANNELS 3 Xrotation Yrotation Zrotation
										JOINT mixamorig:LeftHandPinky3
										{
											OFFSET 2.114197 0.000000 0.000000
											CHANNELS 3 Xrotation Yrotation Zrotation
											JOINT mixamorig:LeftHandPinky4
											{
												OFFSET 1.975700 0.000000 0.000000
												CHANNELS 3 Xrotation Yrotation Zrotation
												End Site
												{
													OFFSET 0.000000 1.975693 0.000892
												}
											}
										}
									}
								}
							}
						}
					}
				}
				JOINT mixamorig:RightShoulder
				{
					OFFSET -4.570000 10.946198 -2.628000
					CHANNELS 3 Xrotation Yrotation Zrotation
					JOINT mixamorig:RightArm
					{
						OFFSET -10.592800 -0.524796 -2.232100
						CHANNELS 3 Xrotation Yrotation Zrotation
						JOINT mixamorig:RightForeArm
						{
							OFFSET -27.841499 0.000000 0.000000
							CHANNELS 3 Xrotation Yrotation Zrotation
							JOINT mixamorig:RightHand
							{
								OFFSET -28.328800 0.000000 0.000000
								CHANNELS 3 Xrotation Yrotation Zrotation
								JOINT mixamorig:RightHandPinky1
								{
									OFFSET -8.076698 -0.486725 -3.806227
									CHANNELS 3 Xrotation Yrotation Zrotation
									JOINT mixamorig:RightHandPinky2
									{
										OFFSET -3.599998 0.000000 0.000000
										CHANNELS 3 Xrotation Yrotation Zrotation
										JOINT mixamorig:RightHandPinky3
										{
											OFFSET -2.114197 0.000000 0.000000
											CHANNELS 3 Xrotation Yrotation Zrotation
											JOINT mixamorig:RightHandPinky4
											{
												OFFSET -1.975700 0.000000 0.000000
												CHANNELS 3 Xrotation Yrotation Zrotation
												End Site
												{
													OFFSET 0.000000 1.975693 0.000919
												}
											}
										}
									}
								}
								JOINT mixamorig:RightHandRing1
								{
									OFFSET -9.103600 -0.043030 -1.865120
									CHANNELS 3 Xrotation Yrotation Zrotation
									JOINT mixamorig:RightHandRing2
									{
										OFFSET -3.153999 0.000000 0.000000
										CHANNELS 3 Xrotation Yrotation Zrotation
										JOINT mixamorig:RightHandRing3
										{
											OFFSET -2.937698 0.000000 0.000000
											CHANNELS 3 Xrotation Yrotation Zrotation
											JOINT mixamorig:RightHandRing4
											{
												OFFSET -2.647499 0.000000 0.000000
												CHANNELS 3 Xrotation Yrotation Zrotation
												End Site
												{
													OFFSET 0.000000 2.647507 0.001231
												}
											}
										}
									}
								}
								JOINT mixamorig:RightHandMiddle1
								{
									OFFSET -9.532501 0.000000 0.000000
									CHANNELS 3 Xrotation Yrotation Zrotation
									JOINT mixamorig:RightHandMiddle2
									{
										OFFSET -3.698196 0.000000 0.000000
										CHANNELS 3 Xrotation Yrotation Zrotation
										JOINT mixamorig:RightHandMiddle3
										{
											OFFSET -2.950897 0.000000 0.000000
											CHANNELS 3 Xrotation Yrotation Zrotation
											JOINT mixamorig:RightHandMiddle4
											{
												OFFSET -2.833900 0.000000 0.000000
												CHANNELS 3 Xrotation Yrotation Zrotation
												End Site
												{
													OFFSET 0.000000 2.833893 0.001318
												}
											}
										}
									}
								}
								JOINT mixamorig:RightHandIndex1
								{
									OFFSET -9.108299 -0.517853 2.259859
									CHANNELS 3 Xrotation Yrotation Zrotation
									JOINT mixamorig:RightHandIndex2
									{
										OFFSET -3.676399 0.000000 0.000000
										CHANNELS 3 Xrotation Yrotation Zrotation
										JOINT mixamorig:RightHandIndex3
										{
											OFFSET -2.883102 0.000000 0.000000
											CHANNELS 3 Xrotation Yrotation Zrotation
											JOINT mixamorig:RightHandIndex4
											{
												OFFSET -2.392700 0.000000 0.000000
												CHANNELS 3 Xrotation Yrotation Zrotation
												End Site
												{
													OFFSET 0.000000 2.392700 0.001113
												}
											}
										}
									}
								}
								JOINT mixamorig:RightHandThumb1
								{
									OFFSET -2.464798 -1.573944 2.681868
									CHANNELS 3 Xrotation Yrotation Zrotation
									JOINT mixamorig:RightHandThumb2
									{
										OFFSET -3.229782 -1.864716 1.864716
										CHANNELS 3 Xrotation Yrotation Zrotation
										JOINT mixamorig:RightHandThumb3
										{
											OFFSET -2.652542 -1.531448 1.531448
											CHANNELS 3 Xrotation Yrotation Zrotation
											JOINT mixamorig:RightHandThumb4
											{
												OFFSET -1.954605 -1.128494 1.128493
												CHANNELS 3 Xrotation Yrotation Zrotation
												End Site
												{
													OFFSET 0.000412 2.523392 0.000704
												}
											}
										}
									}
								}
							}
						}
					}
				}
			}
		}
	}
	JOINT mixamorig:LeftUpLeg
	{
		OFFSET 8.207800 -6.751701 -1.599600
		CHANNELS 3 Xrotation Yrotation Zrotation
		JOINT mixamorig:LeftLeg
		{
			OFFSET 0.000000 -44.370499 0.284600
			CHANNELS 3 Xrotation Yrotation Zrotation
			JOINT mixamorig:LeftFoot
			{
				OFFSET 0.000000 -44.427898 -2.982200
				CHANNELS 3 Xrotation Yrotation Zrotation
				JOINT mixamorig:LeftToeBase
				{
					OFFSET 0.000000 -8.728700 10.710600
					CHANNELS 3 Xrotation Yrotation Zrotation
					JOINT mixamorig:LeftToe_End
					{
						OFFSET 0.000000 -0.000700 9.278099
						CHANNELS 3 Xrotation Yrotation Zrotation
						End Site
						{
							OFFSET 0.000000 9.278100 0.000000
						}
					}
				}
			}
		}
	}
	JOINT mixamorig:RightUpLeg
	{
		OFFSET -8.207800 -6.751701 -1.599600
		CHANNELS 3 Xrotation Yrotation Zrotation
		JOINT mixamorig:RightLeg
		{
			OFFSET 0.000000 -44.370499 0.286200
			CHANNELS 3 Xrotation Yrotation Zrotation
			JOINT mixamorig:RightFoot
			{
				OFFSET 0.000000 -44.427700 -2.983800
				CHANNELS 3 Xrotation Yrotation Zrotation
				JOINT mixamorig:RightToeBase
				{
					OFFSET 0.000000 -8.728700 10.710600
					CHANNELS 3 Xrotation Yrotation Zrotation
					JOINT mixamorig:RightToe_End
					{
						OFFSET 0.000000 -0.000700 9.278100
						CHANNELS 3 Xrotation Yrotation Zrotation
						End Site
						{
							OFFSET 0.000000 9.278100 0.000000
						}
					}
				}
			}
		}
	}
}
MOTION
Frames: 4
Frame Time: 0.033333
4.998383 127.099174 -6.033445 16.291109 2.124985 -5.712793 12.670013 2.691386 0.211912 4.775221 1.734538 0.795898 4.759614 1.730859 0.659371 18.892115 -2.434472 -3.480465 -32.079083 -12.052980 4.724305 -0.000000 -0.000000 0.000000 -0.000000 -0.000000 0.000000 -0.000000 -0.000000 0.000000 3.423954 -2.884547 26.006598 -8.967252 -27.511490 18.998489 0.000011 -50.370832 0.000009 -36.019156 -18.528618 24.651700 -2.482953 -3.790566 2.823260 0.398353 1.622008 15.209467 -20.197769 -15.046594 5.148942 -0.000001 -0.000004 0.000003 -0.366353 -15.221398 -3.746361 0.258177 1.721622 -17.055829 0.053269 0.789070 -7.723948 -0.000001 -0.000001 -0.000001 -0.082782 1.814645 -8.565079 0.279638 1.790033 -17.756337 0.312152 1.888520 -18.769365 -0.000000 -0.000000 -0.000003 2.299765 11.592160 -14.394938 0.393987 2.113941 -21.112444 0.289679 1.821111 -18.075104 -0.000000 -0.000000 0.000004 7.902624 23.606879 -21.069074 0.269577 1.758320 -17.431292 0.242625 1.670114 -16.530420 0.000000 -0.000001 0.000000 5.390573 13.391220 -30.425597 -20.084129 -21.247281 12.575687 -0.000000 37.291819 -0.000001 -13.022706 2.493860 -19.686941 6.821014 -19.298810 22.464076 0.180893 -1.286678 16.004895 0.161809 -1.218199 15.131596 -0.000001 0.000000 0.000001 1.758806 -8.824976 16.001491 0.246493 -1.496524 18.705440 0.172762 -1.258007 15.638697 0.000001 0.000002 -0.000001 -0.230509 -1.409741 11.729610 0.101882 -0.969829 11.993696 0.119773 -1.050513 13.008532 -0.000000 -0.000000 -0.000001 -3.265493 18.349971 10.165858 0.122755 -1.063330 13.170210 0.011478 -0.327094 4.018584 -0.000000 0.000000 0.000000 -4.741397 9.162714 -0.801099 15.231073 -2.885514 -20.801240 -16.578587 -0.923273 -20.825359 0.000003 -0.000000 0.000001 -92.992479 4.937957 20.582647 104.814751 2.994439 0.363974 -8.275134 -0.266022 1.672019 -5.955473 -0.000011 0.000003 0.000003 -0.000001 -0.000000 -117.112828 4.899605 -9.699138 123.885944 -2.360040 0.126322 -6.216343 -1.391928 6.591910 -8.738331 0.000008 0.000002 -0.000000 0.000000 -0.000000 
5.613679 124.685463 -4.885750 14.280620 0.177230 -5.688424 11.992683 3.906806 1.082454 4.503663 2.117870 1.284017 4.498394 2.128143 1.147964 18.928744 -2.724386 -3.619616 -30.158509 -11.603424 3.398323 -0.000001 -0.000000 0.000000 -0.000001 -0.000000 0.000000 -0.000001 -0.000000 0.000000 3.009301 -0.348727 27.917124 -2.294490 -24.207191 14.429014 0.000012 -55.080940 0.000017 -33.106736 -22.287486 27.612351 -2.466487 -3.741028 2.840351 2.547941 2.149615 14.222308 -20.779613 -17.382546 2.995884 -0.000001 0.000000 0.000001 -0.201878 -13.771955 -5.104464 0.268495 1.754875 -17.396077 0.058000 0.823225 -8.060290 -0.000000 -0.000001 0.000000 -0.086745 1.706485 -8.111766 0.280536 1.792839 -17.785005 0.313110 1.891317 -18.798363 -0.000000 0.000000 -0.000002 2.229185 11.556005 -13.970804 0.385851 2.092756 -20.890625 0.282718 1.799620 -17.854528 -0.000000 0.000000 0.000004 7.367713 23.328386 -19.965761 0.273541 1.770897 -17.560116 0.246389 1.682693 -16.658806 0.000001 0.000000 -0.000004 5.615172 14.800955 -29.922041 -18.118291 -19.323633 10.981188 0.000000 37.939795 -0.000001 -12.231355 4.076573 -22.306267 6.435009 -18.066011 23.108639 0.139498 -1.132482 14.044016 0.122943 -1.064126 13.180151 0.000000 -0.000001 -0.000002 1.366728 -7.343229 16.602421 0.197110 -1.341907 16.711707 0.131369 -1.099481 13.626621 0.000001 -0.000002 0.000002 -0.286832 -1.110593 11.599982 0.097484 -0.948901 11.731258 0.115189 -1.030467 12.756123 0.000001 0.000001 0.000002 -3.215109 18.427106 9.932127 0.099170 -0.956984 11.832650 0.006213 -0.240719 2.956312 -0.000001 0.000002 -0.000000 -4.578475 8.748778 -0.962615 15.024227 -3.669123 -20.991965 -16.884422 0.315215 -23.796698 0.000000 -0.000001 -0.000002 -79.891015 7.040731 22.913389 89.383428 2.794014 -1.389817 -3.271542 -0.320551 -0.254643 -5.537452 -0.000016 -0.000003 0.000000 0.000001 0.000001 -117.974743 2.044332 -8.331456 128.101386 -4.544089 -0.792909 -3.962805 -1.448167 6.007254 -9.983067 0.000012 0.000003 0.000001 0.000001 -0.000000 
6.520949 122.198364 -3.566286 12.323452 -1.372985 -5.599054 10.943075 4.627194 2.219770 4.028746 2.357119 1.669497 4.024603 2.387544 1.536168 19.391368 -2.891233 -3.544936 -27.087750 -10.843549 2.256276 -0.000001 -0.000000 -0.000000 -0.000001 -0.000000 -0.000000 -0.000001 -0.000000 -0.000000 2.261478 2.642319 29.073810 3.814075 -22.071442 8.194636 0.000029 -62.203817 0.000028 -26.415075 -25.292903 33.659835 -2.496532 -3.832794 2.808015 4.351642 1.066216 13.188632 -21.152278 -18.622680 2.238958 -0.000001 0.000000 0.000000 -0.068950 -13.513980 -5.342406 0.281561 1.796051 -17.817763 0.064170 0.865668 -8.479099 -0.000000 -0.000001 0.000001 -0.124106 1.093470 -6.762057 0.281995 1.797373 -17.831542 0.314694 1.896001 -18.846536 -0.000001 0.000001 0.000001 2.131800 11.636539 -13.155018 0.383480 2.086555 -20.825781 0.280695 1.793345 -17.790138 -0.000000 0.000000 -0.000001 7.119401 23.209910 -19.553448 0.290715 1.824263 -18.107707 0.262658 1.736171 -17.204475 -0.000000 -0.000000 -0.000002 5.803950 16.028349 -29.722323 -12.066781 -18.629817 11.129593 -0.000001 40.664634 0.000001 -9.481663 4.538335 -26.592520 5.832865 -18.005552 21.140948 0.091501 -0.919623 11.364222 0.080174 -0.861347 10.635198 0.000001 -0.000002 0.000001 0.981839 -6.257554 15.503800 0.148675 -1.168561 14.501081 0.092204 -0.923128 11.408056 0.000000 0.000000 0.000000 -0.390410 -0.511660 11.244721 0.087869 -0.901341 11.135356 0.105028 -0.984517 12.178225 -0.000000 0.000001 0.000001 -2.584190 18.261265 8.223093 0.073571 -0.825377 10.186288 0.001746 -0.127606 1.566632 -0.000001 0.000001 -0.000000 -4.352746 8.163608 -1.188885 14.677585 -4.849462 -20.580975 -17.090957 1.140644 -26.185118 -0.000000 0.000000 0.000002 -66.148565 9.795414 22.133395 70.165488 -0.502409 -3.078486 4.931819 -0.686340 -3.012535 -5.661477 -0.000007 -0.000009 -0.000000 -0.000001 -0.000000 -110.004868 0.332509 -8.211593 126.738463 -5.379606 -0.141720 -0.524178 -1.262312 6.349665 -10.513589 0.000006 -0.000001 0.000001 0.000001 -0.000000 
7.554925 119.075119 -1.466421 10.193118 -2.163866 -5.655653 9.552929 5.196896 3.376975 3.379999 2.557930 1.888831 3.370653 2.605884 1.760184 20.110105 -2.989983 -3.069994 -22.935055 -10.471827 1.705435 -0.000002 0.000001 -0.000000 -0.000002 0.000001 -0.000000 -0.000002 0.000001 -0.000000 1.437174 5.474266 28.619891 8.127300 -19.776676 0.986476 -0.000051 -71.807076 -0.000053 -18.702147 -26.957309 40.628725 -2.550928 -3.995829 2.751702 3.842158 -0.889792 13.222176 -21.261814 -18.644260 2.341093 -0.000001 0.000000 -0.000000 -0.313785 -14.407097 -5.250385 0.290296 1.822972 -18.094370 0.068418 0.893671 -8.755504 -0.000001 0.000000 -0.000002 -0.153457 0.613136 -6.151466 0.285320 1.807679 -17.937322 0.318259 1.906413 -18.953970 -0.000000 0.000001 -0.000003 2.226011 11.884328 -13.375046 0.395247 2.117202 -21.146561 0.290822 1.824626 -18.111346 -0.000000 -0.000000 -0.000001 7.380754 23.534983 -20.011657 0.314269 1.894722 -18.833512 0.285065 1.806890 -17.929170 -0.000001 -0.000002 0.000001 5.870808 16.729326 -29.432894 -3.238041 -20.598618 13.617443 -0.000013 45.838909 0.000009 -7.232124 3.880843 -31.259594 4.645554 -18.945627 15.392916 0.055240 -0.715943 8.823982 0.049185 -0.675767 8.325096 0.000001 0.000001 0.000000 0.732235 -6.113447 11.370553 0.107888 -0.997664 12.343447 0.060798 -0.750885 9.258293 -0.000000 0.000003 -0.000001 -0.366639 -0.089139 9.289033 0.070076 -0.805745 9.941168 0.085668 -0.890073 10.994597 0.000000 -0.000002 -0.000001 -1.520678 17.028503 5.489628 0.045734 -0.651727 8.026870 0.000214 0.045728 -0.561226 0.000001 0.000000 -0.000000 -4.081232 7.440974 -1.465130 14.264142 -6.367190 -19.614300 -17.202168 0.542276 -27.017331 0.000001 -0.000001 0.000000 -50.879373 10.937497 17.954680 48.929542 -3.434417 -2.762790 14.373658 -1.696386 -7.980662 -5.075070 0.000007 -0.000008 -0.000000 0.000000 -0.000000 -94.998820 -0.373221 -9.071143 120.012544 -6.002339 1.366949 3.163381 -0.848076 7.516480 -9.444322 -0.000000 0.000001 0.000003 -0.000001 0.000000 
